<svg width="20" height="19" fill="none" xmlns="http://www.w3.org/2000/svg"><path d="M19.633 14.883l-4.564-3.942a1.159 1.159 0 00-.79-.277 1.152 1.152 0 00-.772.323l-2.686 2.625c-.647-.117-1.947-.502-3.285-1.77C6.198 10.568 5.792 9.33 5.672 8.72l2.76-2.554c.21-.192.332-.455.341-.732a1.036 1.036 0 00-.292-.751L4.333.349a1.147 1.147 0 00-.761-.347 1.16 1.16 0 00-.8.255L.334 2.242c-.194.185-.31.43-.326.692-.017.266-.338 6.582 4.818 11.482C9.324 18.687 14.957 19 16.509 19c.227 0 .366-.006.403-.009a1.14 1.14 0 00.728-.31l2.088-2.315c.19-.21.288-.483.27-.76a1.043 1.043 0 00-.365-.723z" fill="#fff"/></svg>