<svg width="15" height="15" fill="none" xmlns="http://www.w3.org/2000/svg"><path d="M14.724 11.162l-3.422-2.956a.87.87 0 00-.593-.208.864.864 0 00-.579.242l-2.014 1.97c-.485-.088-1.46-.377-2.464-1.328-1.004-.954-1.308-1.883-1.398-2.34l2.07-1.915a.782.782 0 00.256-.55.777.777 0 00-.22-.563L3.25.263a.87.87 0 00-1.171-.07L.25 1.68a.782.782 0 00-.244.52c-.013.2-.253 4.936 3.613 8.611 3.373 3.204 7.598 3.438 8.762 3.438.17 0 .274-.005.302-.006a.858.858 0 00.546-.233l1.566-1.737a.772.772 0 00-.072-1.112z" fill="#1C2A5C"/></svg>