<svg width="62" height="62" fill="none" xmlns="http://www.w3.org/2000/svg"><path fill-rule="evenodd" clip-rule="evenodd" d="M1.693 1.693A5.78 5.78 0 015.78 0h50.44A5.78 5.78 0 0162 5.78v33.627a5.78 5.78 0 01-5.78 5.78H40.983v13.66H54.12V62H7.88v-3.153h13.136v-13.66H5.78A5.78 5.78 0 010 39.406V5.78a5.78 5.78 0 011.693-4.087zm22.476 43.493v13.661h13.662v-13.66H24.169zM5.78 3.153A2.627 2.627 0 003.154 5.78v33.627a2.627 2.627 0 002.627 2.627h50.44a2.627 2.627 0 002.627-2.627V5.78a2.627 2.627 0 00-2.627-2.627H5.78z" fill="#fff"/></svg>