<svg width="22" height="21" fill="none" xmlns="http://www.w3.org/2000/svg"><path d="M11.156.438c-2.93 0-3.296.013-4.443.058-1.152.053-1.93.22-2.618.469a5.33 5.33 0 00-1.91 1.163A4.862 4.862 0 00.94 3.909C.673 4.551.494 5.28.438 6.354.386 7.424.375 7.765.375 10.5c0 2.736.014 3.076.063 4.147.056 1.072.235 1.802.502 2.443.271.672.697 1.28 1.246 1.782a5.275 5.275 0 001.909 1.163c.687.246 1.47.416 2.618.469 1.148.048 1.512.058 4.443.058 2.931 0 3.296-.013 4.443-.058 1.149-.053 1.931-.223 2.619-.469a5.338 5.338 0 001.909-1.163c.551-.5.977-1.109 1.246-1.782.263-.641.445-1.371.502-2.443.052-1.071.063-1.412.063-4.147 0-2.735-.015-3.076-.063-4.147-.057-1.072-.24-1.806-.502-2.443a4.919 4.919 0 00-1.246-1.782 5.25 5.25 0 00-1.91-1.163C17.53.715 16.748.549 15.6.496 14.452.448 14.087.438 11.156.438zm0 1.811c2.878 0 3.222.013 4.36.058 1.05.046 1.62.21 2 .348.469.162.894.42 1.243.753.357.325.631.72.803 1.157.148.354.323.887.373 1.867.048 1.061.062 1.383.062 4.069 0 2.685-.014 3.007-.066 4.069-.057.979-.232 1.512-.38 1.866a3.26 3.26 0 01-.808 1.16c-.35.332-.774.588-1.242.75-.375.138-.955.302-2.008.348-1.144.045-1.48.058-4.366.058-2.886 0-3.222-.013-4.367-.062-1.05-.053-1.629-.216-2.008-.354a3.414 3.414 0 01-1.24-.754 3.01 3.01 0 01-.806-1.16c-.15-.35-.323-.89-.38-1.874-.038-1.055-.056-1.382-.056-4.063 0-2.679.018-3.007.057-4.075.056-.983.228-1.522.38-1.873.185-.48.427-.806.806-1.16.375-.35.727-.577 1.24-.754.378-.138.943-.302 1.997-.35 1.143-.04 1.48-.053 4.362-.053l.044.029zm0 3.086a5.89 5.89 0 00-2.118.393c-.672.26-1.282.64-1.796 1.12a5.156 5.156 0 00-1.2 1.676 4.867 4.867 0 000 3.954 5.155 5.155 0 001.2 1.677c.514.48 1.124.86 1.796 1.12a5.889 5.889 0 002.118.392c.727 0 1.447-.133 2.119-.393a5.574 5.574 0 001.796-1.12 5.171 5.171 0 001.2-1.676 4.865 4.865 0 000-3.954 5.155 5.155 0 00-1.2-1.676 5.575 5.575 0 00-1.796-1.12 5.878 5.878 0 00-2.119-.393zm0 8.52c-1.986 0-3.594-1.5-3.594-3.354s1.608-3.354 3.594-3.354c1.987 0 3.594 1.5 3.594 3.354s-1.607 3.355-3.594 3.355zm7.052-8.726c0 .32-.137.628-.38.855a1.374 1.374 0 01-1.41.262 1.3 1.3 0 01-.42-.262 1.205 1.205 0 01-.28-.392 1.137 1.137 0 010-.924c.064-.146.16-.279.28-.391a1.3 1.3 0 01.42-.262c.156-.06.324-.092.494-.092.713 0 1.296.541 1.296 1.206z" fill="#3763FF"/></svg>