<svg width="18" height="16" fill="none" xmlns="http://www.w3.org/2000/svg"><path d="M16.683 3.21c.404.269.736.639.967 1.076.23.438.35.93.35 1.428V11.2c0 2.651-2.063 4.8-4.61 4.8H5.488c-.48 0-.951-.125-1.371-.365a2.901 2.901 0 01-1.034-1.006H13.39c.873 0 1.711-.362 2.329-1.005a3.502 3.502 0 00.964-2.424V3.21zm-.878.548v6.985a3.04 3.04 0 01-.78 2.04c-.5.552-1.184.884-1.912.927l-.162.004H2.854c-.73 0-1.43-.29-1.96-.811a3.025 3.025 0 01-.89-1.992L0 10.743V3.758L7.595 7.92a.638.638 0 00.615 0l7.595-4.163zM2.854 0H12.95c.637 0 1.256.222 1.758.63.502.41.859.98 1.013 1.625l-7.82 4.284L.083 2.255c.148-.615.48-1.165.948-1.57a2.793 2.793 0 011.657-.68L2.854 0z" fill="#3763FF"/></svg>