<svg width="44" height="39" fill="none" xmlns="http://www.w3.org/2000/svg"><path d="M13.44 7.164c.94-.503 1.953-.663 2.938-.663 1.14 0 2.465.375 3.535 1.25 1.12.918 1.88 2.326 1.88 4.163 0 2.112-1.492 3.258-2.332 3.904l-.184.143c-.919.721-1.274 1.107-1.274 1.91a1.625 1.625 0 11-3.25 0c0-2.456 1.54-3.7 2.518-4.466 1.11-.873 1.273-1.068 1.273-1.49 0-.86-.322-1.348-.693-1.65a2.415 2.415 0 00-1.473-.517c-.639 0-1.079.106-1.408.282-.31.164-.637.455-.953 1.04a1.625 1.625 0 11-2.86-1.55c.572-1.052 1.326-1.847 2.284-2.358v.002zm2.938 18.83a2.166 2.166 0 100-4.332 2.166 2.166 0 000 4.332z" fill="#3763FF"/><path d="M16.378 0A16.247 16.247 0 001.654 23.12l-1.57 6.156a2.708 2.708 0 003.258 3.302c1.625-.39 4.122-.99 6.347-1.52a16.248 16.248 0 0022.485-18.57A16.247 16.247 0 0016.378 0zM3.381 16.247a12.997 12.997 0 117.213 11.643l-.526-.262-.574.136-6.04 1.445c.434-1.69 1.001-3.925 1.495-5.866l.152-.598-.282-.548a12.934 12.934 0 01-1.438-5.95z" fill="#3763FF"/><path d="M27.21 38.992a16.196 16.196 0 01-11.048-4.332h.216c1.556 0 3.065-.193 4.508-.557a12.946 12.946 0 006.326 1.64c2.08 0 4.042-.488 5.781-1.354l.526-.262.575.136c1.995.477 4.256.964 5.935 1.322a341.837 341.837 0 00-1.39-5.743l-.152-.598.281-.548a12.935 12.935 0 001.439-5.95 12.987 12.987 0 00-5.95-10.923 18.289 18.289 0 00-1.734-4.434 16.253 16.253 0 019.41 22.232 341.861 341.861 0 011.456 6.072 2.695 2.695 0 01-3.18 3.25 289.41 289.41 0 01-6.31-1.387 16.194 16.194 0 01-6.69 1.436z" fill="#3763FF"/></svg>