<svg width="80" height="65" fill="none" xmlns="http://www.w3.org/2000/svg"><path fill-rule="evenodd" clip-rule="evenodd" d="M54.373 1.666C50.676 4.319 49.52 5.2 49.299 5.539c-.297.453-.145 1.052.496 1.946.448.624.509.777.356.897-2.267 1.778-13.672 10.012-13.868 10.012-.313 0-9.964-5.546-9.964-5.726 0-.1.147-.471.326-.824.617-1.217.4-1.604-1.502-2.67C23.088 8.02 19.16 6.14 18.618 6.05c-.98-.166-.364-1.062-6.462 9.415C4.106 29.295 0 36.52 0 36.854c0 .507.333.883 1.284 1.447 1.267.752 6.432 3.306 7.077 3.499.627.188 1.004-.041 1.562-.946l.4-.651.67 1.34c.655 1.311 1.221 2.229 2.042 3.309l.407.536-.333.656c-.602 1.187-.665 2.8-.147 3.799.745 1.44 3.314 3.163 5.149 3.455.713.114 1.042.275 1.042.51 0 .098.264.705.587 1.349.445.887.777 1.347 1.37 1.896 1.229 1.135 3.831 2.295 5.15 2.295.36 0 .426.059.558.498.375 1.25 2.033 3.12 3.584 4.041 1.3.773 2.361 1.1 3.605 1.112.951.01 1.189-.035 1.688-.315.713-.4 1.523-1.387 2.66-3.246l.867-1.417L42 61.367c3.415 1.654 3.886 1.801 5.542 1.732 1-.041 1.384-.116 1.898-.372.92-.457 2.089-1.642 2.516-2.554.335-.713.357-.87.357-2.557v-1.797l.781-.414c.931-.492 2.127-1.634 2.557-2.44.287-.537.31-.725.31-2.563V48.42l.7-.283c2.205-.894 3.642-3.668 3.116-6.013-.223-.993-.328-.834.99-1.497.802-.404 1.874-1.47 2.284-2.27.375-.734.37-.73 1.444-1.176 1.841-.764 3.629-2.533 4.689-4.643.162-.322.316-.61.343-.639.027-.03.503.425 1.059 1.01 1.494 1.572 1.122 1.691 6.109-1.952C79.188 29.135 80 28.39 80 27.921c0-.366-1.575-2.36-10.225-12.954-1.14-1.396-2.718-3.328-3.506-4.295-3.5-4.293-7.453-9.024-8.197-9.813C57.555.311 57.16 0 56.977 0c-.156 0-1.328.75-2.604 1.666zm3.12 2.271c.388.447 1.583 1.897 2.654 3.221 1.072 1.324 3.237 3.99 4.813 5.922 11.12 13.64 11.812 14.516 11.63 14.733-.27.325-4.034 3.032-4.216 3.032-.185 0-1.025-.984-5.548-6.507-7.332-8.953-14.45-17.774-14.45-17.909 0-.1.27-.315 2.46-1.971.97-.734 1.804-1.334 1.856-1.334.05 0 .41.366.8.813zm-34.007 7.281l.36.254-.482.87c-.893 1.611-6.57 11.504-9.46 16.486-4.207 7.248-5.828 9.957-5.96 9.957-.223 0-4.488-2.146-4.794-2.412-.023-.02.058-.233.18-.472.377-.738 11.28-19.612 14.924-25.833l.697-1.19 2.088 1.043c1.148.574 2.25 1.158 2.447 1.297zm30.809 1.83c5.974 7.173 13.08 16.042 13.288 16.583.112.29-1.229 2.84-1.866 3.547-.583.648-1.737 1.572-1.963 1.572-.066 0-.322-.422-.57-.937-.648-1.355-1.478-2.132-3.136-2.935-3.052-1.479-15.836-6.8-16.336-6.8-.316 0-1.453.712-6.188 3.875l-3.974 2.655-1.029-.066c-.862-.055-1.116-.126-1.563-.44-.738-.517-1.119-1.25-1.144-2.202-.04-1.526.01-1.571 8.948-8.056 7.49-5.434 13.094-9.432 13.222-9.432.064 0 1.104 1.186 2.311 2.635zm-27.072 3.241c1.783.984 3.742 2.108 6.294 3.609.197.116.356.24.354.275-.001.036-1.003.797-2.225 1.692-2.517 1.843-3.488 2.783-3.996 3.868-.311.665-.351.904-.345 2.054.008 1.666.311 2.496 1.3 3.563a5.684 5.684 0 004.166 1.838c1.25 0 1.99-.395 7.434-3.98 1.913-1.258 3.551-2.317 3.642-2.351.242-.093 11.852 4.779 15.077 6.325 1.247.598 1.437.735 1.743 1.257.453.771.539 1.578.25 2.335-.616 1.608-2.089 2.262-3.684 1.634-.344-.136-2.355-1.097-4.467-2.136-5.53-2.718-5.563-2.732-6.128-2.43-.3.161-.645.787-.645 1.172 0 .635.447.906 6.84 4.156 1.864.947 3.49 1.812 3.614 1.922.42.374.882 1.488.882 2.128 0 1.689-1.692 3.142-3.197 2.747-.29-.076-2.744-1.226-5.453-2.554-2.841-1.393-5.082-2.416-5.293-2.416-.744 0-1.347 1.266-.878 1.842.307.377 1.006.775 4.656 2.65 5.631 2.892 6.072 3.194 6.395 4.39.492 1.815-1.26 3.765-3.078 3.424-.255-.047-1.622-.669-3.037-1.38-1.415-.712-2.734-1.295-2.93-1.295-.425 0-.949.481-1.076.989-.157.625.178.97 1.97 2.025 3.544 2.087 3.715 2.202 4.045 2.7.644.971.542 2.465-.228 3.34-.845.963-1.803 1.176-3.169.707-.76-.262-4.563-2.06-5.11-2.416l-.29-.19.42-.804c.392-.746.422-.893.418-2.048-.006-1.49-.217-1.988-1.343-3.167-1.335-1.397-3.07-2.369-5.144-2.88l-1.149-.284-.29-.714c-.629-1.545-1.708-2.683-3.266-3.442-1.415-.69-2.24-.856-4.178-.84a89.63 89.63 0 01-1.852.006c-.087-.005-.534-.361-.994-.79-1.68-1.57-3.058-2.148-4.907-2.055-1.371.069-2.01.366-2.964 1.377-.79.838-.675.89-1.607-.729-.722-1.253-1.118-2.374-1.306-3.695l-.154-1.08 5.7-9.892c6.359-11.033 6.724-11.649 6.9-11.649.069 0 1.096.537 2.283 1.192zm-7.592 27.115c1.284.38 2.519 1.685 2.519 2.661 0 .476-1.004 2.555-1.914 3.962l-.579.896-.738-.076c-.995-.103-2.701-.952-3.347-1.665-.44-.487-.48-.592-.416-1.076.083-.616 1.027-2.506 1.901-3.806.754-1.12 1.242-1.29 2.574-.896zm7.796 2.734c1.39.292 2.711.994 3.197 1.7.604.877.698 1.243.464 1.804-.248.592-2.026 3.573-3.278 5.496-.566.87-1.058 1.488-1.229 1.542-.9.285-3.657-1.055-4.365-2.122a3.05 3.05 0 01-.41-1.147c-.082-.692-.1-.654 1.887-4.325.362-.67.792-1.54.955-1.934.51-1.23.963-1.394 2.779-1.014zm7.454 5.347c2.07.684 3.96 2.099 4.15 3.106.117.629-.04.957-1.927 4.033-1.774 2.893-2.381 3.795-2.611 3.883-.346.133-1.606-.193-2.444-.632-1.33-.697-2.137-1.48-2.675-2.598l-.464-.963L30.311 56c3.05-5.037 3.035-5.023 4.57-4.515z" fill="#fff"/></svg>