<svg width="27" height="21" fill="none" xmlns="http://www.w3.org/2000/svg"><path fill-rule="evenodd" clip-rule="evenodd" d="M26.375 2.822c-.969.411-1.997.68-3.049.8A5.143 5.143 0 0025.66.812a10.931 10.931 0 01-3.371 1.233 5.387 5.387 0 00-3.012-1.54 5.518 5.518 0 00-3.37.534 5.179 5.179 0 00-2.332 2.386 4.88 4.88 0 00-.332 3.253 15.6 15.6 0 01-6.06-1.54 14.962 14.962 0 01-4.881-3.77 4.891 4.891 0 00-.72 2.555c0 1.762.937 3.318 2.363 4.229a5.506 5.506 0 01-2.406-.635v.062a4.95 4.95 0 001.2 3.218 5.357 5.357 0 003.059 1.764 5.585 5.585 0 01-2.398.088 5.1 5.1 0 001.889 2.524c.89.633 1.963.984 3.07 1.004a10.968 10.968 0 01-6.592 2.174A11.4 11.4 0 01.5 18.28a15.531 15.531 0 008.138 2.282c9.764 0 15.103-7.74 15.103-14.454 0-.22-.005-.438-.015-.656a10.56 10.56 0 002.649-2.63z" fill="#3763FF"/></svg>