<svg width="20" height="19" viewBox="0 0 20 19" fill="none" xmlns="http://www.w3.org/2000/svg">
<path d="M19.6326 14.8832L15.0689 10.9413C14.8532 10.755 14.5697 10.6556 14.2783 10.6642C13.9869 10.6728 13.7105 10.7886 13.5073 10.9871L10.8207 13.6119C10.174 13.4945 8.87396 13.1095 7.53573 11.8414C6.1975 10.569 5.79221 9.33079 5.67209 8.72073L8.43275 6.16745C8.64203 5.97454 8.76409 5.71185 8.7731 5.43496C8.78211 5.15807 8.67737 4.88871 8.48103 4.6839L4.33273 0.349495C4.13631 0.144034 3.86332 0.0194071 3.57173 0.00208165C3.28014 -0.0152437 2.99292 0.0760977 2.77109 0.256707L0.334875 2.24153C0.140776 2.42659 0.0249252 2.67289 0.00929798 2.93371C-0.00754219 3.20034 -0.328628 9.51637 4.82671 14.416C9.32416 18.6875 14.9578 19 16.5093 19C16.7361 19 16.8753 18.9936 16.9123 18.9915C17.1868 18.9769 17.446 18.8663 17.6398 18.6811L19.728 16.3657C19.9189 16.1556 20.0157 15.883 19.9979 15.606C19.9801 15.329 19.849 15.0696 19.6326 14.8832Z" fill="white"/>
</svg>
