<svg width="15" height="15" viewBox="0 0 15 15" fill="none" xmlns="http://www.w3.org/2000/svg">
<path d="M14.7244 11.1624L11.3017 8.20595C11.1399 8.06624 10.9273 7.99174 10.7087 7.99815C10.4902 8.00457 10.2828 8.09141 10.1304 8.24034L8.11552 10.2089C7.63052 10.1209 6.65547 9.83214 5.6518 8.88106C4.64812 7.92678 4.34416 6.99809 4.25407 6.54055L6.32456 4.62559C6.48152 4.48091 6.57307 4.28388 6.57983 4.07622C6.58659 3.86855 6.50802 3.66654 6.36077 3.51292L3.24955 0.262121C3.10223 0.108026 2.89749 0.0145553 2.6788 0.00156124C2.4601 -0.0114328 2.24469 0.0570733 2.07831 0.19253L0.251156 1.68115C0.105582 1.81994 0.0186939 2.00467 0.00697348 2.20028C-0.00565665 2.40026 -0.246471 7.13728 3.62003 10.812C6.99312 14.0156 11.2183 14.25 12.382 14.25C12.5521 14.25 12.6565 14.2452 12.6843 14.2436C12.8901 14.2327 13.0845 14.1497 13.2299 14.0108L14.796 12.2742C14.9392 12.1167 15.0118 11.9122 14.9984 11.7045C14.9851 11.4967 14.8867 11.3022 14.7244 11.1624Z" fill="#1C2A5C"/>
</svg>
