<svg width="38" height="38" viewBox="0 0 38 38" fill="none" xmlns="http://www.w3.org/2000/svg">
<circle cx="19" cy="19" r="19" fill="#3763FF"/>
<path d="M27.5093 11.5516C27.8881 11.1939 28.392 10.9961 28.9149 11.0001C29.4378 11.004 29.9387 11.2093 30.3119 11.5727C30.6852 11.936 30.9015 12.4291 30.9153 12.9477C30.9291 13.4663 30.7394 13.97 30.386 14.3524L19.659 27.6627C19.4746 27.8599 19.2519 28.018 19.0045 28.1278C18.757 28.2376 18.4897 28.2968 18.2187 28.3018C17.9476 28.3068 17.6783 28.2575 17.4269 28.1568C17.1755 28.0562 16.9471 27.9063 16.7555 27.7161L9.64176 20.6581C9.44366 20.475 9.28476 20.2541 9.17456 20.0087C9.06435 19.7633 9.00509 19.4984 9.00031 19.2298C8.99554 18.9612 9.04534 18.6944 9.14675 18.4453C9.24816 18.1962 9.39911 17.9699 9.59058 17.7799C9.78205 17.5899 10.0101 17.4402 10.2612 17.3396C10.5123 17.2389 10.7812 17.1895 11.0519 17.1943C11.3227 17.199 11.5897 17.2578 11.837 17.3671C12.0843 17.4765 12.3069 17.6341 12.4915 17.8307L18.1212 23.4136L27.4583 11.6103C27.4751 11.5898 27.493 11.5702 27.512 11.5516H27.5093Z" fill="white"/>
</svg>
