<svg width="62" height="62" viewBox="0 0 62 62" fill="none" xmlns="http://www.w3.org/2000/svg">
<path fill-rule="evenodd" clip-rule="evenodd" d="M1.69282 1.69282C2.77672 0.608927 4.2468 0 5.77966 0H56.2203C57.7532 0 59.2233 0.608927 60.3072 1.69282C61.3911 2.77672 62 4.2468 62 5.77966V39.4068C62 40.9396 61.3911 42.4097 60.3072 43.4936C59.2233 44.5775 57.7532 45.1864 56.2203 45.1864H40.9831V58.8475H54.1186V62H7.88136V58.8475H21.0169V45.1864H5.77966C4.2468 45.1864 2.77672 44.5775 1.69282 43.4936C0.608927 42.4097 0 40.9396 0 39.4068V5.77966C0 4.2468 0.608927 2.77672 1.69282 1.69282ZM24.1695 45.1864V58.8475H37.8305V45.1864H24.1695ZM5.77966 3.15254C5.08291 3.15254 4.41469 3.42933 3.92201 3.92201C3.42933 4.41469 3.15254 5.08291 3.15254 5.77966V39.4068C3.15254 40.1035 3.42933 40.7718 3.92201 41.2644C4.41469 41.7571 5.08291 42.0339 5.77966 42.0339H56.2203C56.9171 42.0339 57.5853 41.7571 58.078 41.2644C58.5707 40.7718 58.8475 40.1035 58.8475 39.4068V5.77966C58.8475 5.08291 58.5707 4.41469 58.078 3.92201C57.5853 3.42933 56.9171 3.15254 56.2203 3.15254H5.77966Z" fill="white"/>
</svg>
