<svg width="22" height="21" viewBox="0 0 22 21" fill="none" xmlns="http://www.w3.org/2000/svg">
<path d="M11.1563 0.4375C8.22541 0.4375 7.86015 0.450709 6.71315 0.495996C5.56143 0.54883 4.78239 0.715511 4.095 0.964589C3.37557 1.21808 2.72403 1.61497 2.1858 2.12758C1.63504 2.62876 1.20957 3.2372 0.939739 3.9095C0.672869 4.55106 0.494282 5.27817 0.437674 6.3531C0.385783 7.42426 0.375 7.76454 0.375 10.5C0.375 13.2355 0.389152 13.5764 0.437674 14.6469C0.494282 15.7187 0.672869 16.4489 0.939739 17.0905C1.21134 17.762 1.63657 18.3701 2.1858 18.8724C2.72277 19.3865 3.37467 19.7836 4.095 20.0354C4.78239 20.2813 5.5648 20.4512 6.71315 20.504C7.86082 20.5524 8.22541 20.5625 11.1563 20.5625C14.0871 20.5625 14.4524 20.5493 15.5994 20.504C16.7477 20.4512 17.5301 20.2807 18.2175 20.0354C18.9369 19.7819 19.5885 19.385 20.1267 18.8724C20.6782 18.3718 21.1038 17.7632 21.3728 17.0905C21.6363 16.4489 21.8182 15.7187 21.8748 14.6469C21.9267 13.5757 21.9375 13.2355 21.9375 10.5C21.9375 7.76454 21.9233 7.42364 21.8748 6.3531C21.8182 5.28131 21.6356 4.54729 21.3728 3.9095C21.1012 3.23803 20.6759 2.62993 20.1267 2.12758C19.5903 1.61288 18.9382 1.21567 18.2175 0.964589C17.5301 0.715511 16.7477 0.54883 15.5994 0.495996C14.4517 0.447564 14.0871 0.4375 11.1563 0.4375ZM11.1563 2.24898C14.0345 2.24898 14.3782 2.26219 15.5158 2.30747C16.5651 2.35339 17.1365 2.51692 17.516 2.6553C17.985 2.8169 18.4096 3.07411 18.7587 3.4082C19.116 3.73264 19.3905 4.12797 19.562 4.5649C19.7102 4.91902 19.8854 5.4524 19.9346 6.43173C19.9832 7.49345 19.9973 7.81486 19.9973 10.5006C19.9973 13.1864 19.9832 13.5078 19.9306 14.5695C19.874 15.5489 19.6988 16.0822 19.5512 16.4364C19.347 16.9087 19.1192 17.2389 18.7432 17.5962C18.3929 17.9282 17.9686 18.1842 17.5005 18.346C17.1258 18.4843 16.5462 18.6479 15.4929 18.6938C14.3492 18.7391 14.0123 18.7523 11.1266 18.7523C8.24091 18.7523 7.90462 18.7391 6.75965 18.69C5.71036 18.6372 5.13147 18.4736 4.75206 18.3359C4.23989 18.1453 3.88878 17.9327 3.51274 17.5817C3.13332 17.2276 2.89206 16.8905 2.70606 16.4219C2.55511 16.0722 2.38259 15.5312 2.32665 14.5481C2.28824 13.4933 2.27004 13.1663 2.27004 10.4855C2.27004 7.80606 2.28824 7.47836 2.32665 6.41034C2.38259 5.42724 2.55511 4.88757 2.70606 4.53659C2.89206 4.05794 3.134 3.73086 3.51274 3.37675C3.88811 3.0264 4.23989 2.79997 4.75206 2.62259C5.13147 2.48485 5.69621 2.32131 6.74954 2.27225C7.89317 2.23388 8.23012 2.22004 11.1118 2.22004L11.1563 2.24898ZM11.1563 5.33541C10.4293 5.33516 9.70948 5.46861 9.03784 5.72813C8.36621 5.98765 7.75594 6.36815 7.24193 6.8479C6.72792 7.32764 6.32024 7.89722 6.04218 8.52408C5.76412 9.15094 5.62114 9.8228 5.62141 10.5013C5.62114 11.1797 5.76412 11.8516 6.04218 12.4784C6.32024 13.1053 6.72792 13.6749 7.24193 14.1546C7.75594 14.6344 8.36621 15.0149 9.03784 15.2744C9.70948 15.5339 10.4293 15.6674 11.1563 15.6671C11.8832 15.6674 12.603 15.5339 13.2747 15.2744C13.9463 15.0149 14.5566 14.6344 15.0706 14.1546C15.5846 13.6749 15.9923 13.1053 16.2703 12.4784C16.5484 11.8516 16.6914 11.1797 16.6911 10.5013C16.6914 9.8228 16.5484 9.15094 16.2703 8.52408C15.9923 7.89722 15.5846 7.32764 15.0706 6.8479C14.5566 6.36815 13.9463 5.98765 13.2747 5.72813C12.603 5.46861 11.8832 5.33516 11.1563 5.33541ZM11.1563 13.8556C9.16956 13.8556 7.56228 12.3555 7.56228 10.5013C7.56228 8.64701 9.16956 7.14688 11.1563 7.14688C13.1429 7.14688 14.7502 8.64701 14.7502 10.5013C14.7502 12.3555 13.1429 13.8556 11.1563 13.8556ZM18.2081 5.1291C18.2077 5.44967 18.071 5.757 17.828 5.98356C17.585 6.21012 17.2556 6.33738 16.9121 6.33738C16.7423 6.33738 16.5741 6.30616 16.4172 6.2455C16.2603 6.18484 16.1178 6.09593 15.9977 5.98385C15.8776 5.87177 15.7823 5.73871 15.7173 5.59226C15.6523 5.44582 15.6189 5.28886 15.6189 5.13036C15.6189 4.97185 15.6523 4.81489 15.7173 4.66845C15.7823 4.52201 15.8776 4.38895 15.9977 4.27686C16.1178 4.16478 16.2603 4.07587 16.4172 4.01521C16.5741 3.95455 16.7423 3.92333 16.9121 3.92333C17.6245 3.92333 18.2081 4.46426 18.2081 5.1291Z" fill="#3763FF"/>
</svg>
