<svg width="16" height="22" viewBox="0 0 16 22" fill="none" xmlns="http://www.w3.org/2000/svg">
<path d="M8 0C3.55417 0 0 3.55417 0 8C0 9.5375 0.458333 10.725 1.25417 11.9292L7.15833 20.8875C7.3375 21.1583 7.64583 21.3333 8 21.3333C8.35417 21.3333 8.66667 21.1542 8.84167 20.8875L14.7458 11.9292C15.5417 10.725 16 9.5375 16 8C16 3.55417 12.4458 0 8 0ZM8 12.4417C5.54583 12.4417 3.55417 10.45 3.55417 7.99167C3.55417 5.53333 5.54583 3.54167 8 3.54167C10.4542 3.54167 12.4458 5.53333 12.4458 7.99167C12.4458 10.45 10.4542 12.4417 8 12.4417Z" fill="#3763FF"/>
</svg>
