<svg width="18" height="16" viewBox="0 0 18 16" fill="none" xmlns="http://www.w3.org/2000/svg">
<path d="M16.6829 3.21006C17.0869 3.47856 17.4194 3.84877 17.6496 4.28647C17.8798 4.72418 18.0003 5.21524 18 5.71429V11.2C18 13.8514 15.9366 16 13.3902 16H5.4878C5.00854 16.0003 4.53694 15.8748 4.11658 15.6351C3.69623 15.3954 3.34069 15.0492 3.08283 14.6286H13.3902C14.2635 14.6286 15.101 14.2673 15.7185 13.6244C16.336 12.9814 16.6829 12.1093 16.6829 11.2V3.21006ZM15.8049 3.75771V10.7429C15.8049 11.5018 15.526 12.2321 15.0255 12.7838C14.5249 13.3354 13.8405 13.6667 13.1128 13.7097L12.9512 13.7143H2.85366C2.12476 13.7143 1.42347 13.424 0.893651 12.9027C0.363834 12.3814 0.0456574 11.6689 0.00439034 10.9111L0 10.7429V3.75771L7.59512 7.92137C7.68985 7.97342 7.79534 8.00062 7.90244 8.00062C8.00954 8.00062 8.11503 7.97342 8.20976 7.92137L15.8049 3.75771ZM2.85366 5.51372e-09H12.9512C13.5884 -4.03914e-05 14.2073 0.2219 14.7093 0.630481C15.2113 1.03906 15.5676 1.61079 15.7215 2.25463L7.90244 6.53897L0.0834147 2.25463C0.230616 1.63966 0.562688 1.08976 1.03118 0.685152C1.49968 0.280547 2.08008 0.0424107 2.68771 0.00548576L2.85366 5.51372e-09Z" fill="#3763FF"/>
</svg>
