<svg width="44" height="39" viewBox="0 0 44 39" fill="none" xmlns="http://www.w3.org/2000/svg">
<path d="M13.4408 7.16384C14.3809 6.66128 15.3925 6.50098 16.3782 6.50098C17.5176 6.50098 18.8433 6.87573 19.9134 7.75089C21.0334 8.66936 21.7937 10.0774 21.7937 11.9144C21.7937 14.0264 20.3012 15.1724 19.4607 15.8179L19.2766 15.9609C18.3581 16.6822 18.0028 17.0678 18.0028 17.8715C18.0028 18.3023 17.8317 18.7156 17.527 19.0203C17.2223 19.325 16.809 19.4961 16.3782 19.4961C15.9473 19.4961 15.534 19.325 15.2293 19.0203C14.9247 18.7156 14.7535 18.3023 14.7535 17.8715C14.7535 15.415 16.2937 14.1716 17.2706 13.4047C18.3819 12.5317 18.5444 12.3368 18.5444 11.9144C18.5444 11.0544 18.2216 10.567 17.8512 10.2659C17.431 9.93497 16.9129 9.75288 16.3782 9.74814C15.7391 9.74814 15.2994 9.85428 14.9701 10.0297C14.6603 10.1944 14.3332 10.4847 14.017 11.0695C13.9153 11.2573 13.7776 11.4232 13.6118 11.5577C13.446 11.6922 13.2553 11.7928 13.0506 11.8537C12.846 11.9145 12.6313 11.9345 12.4189 11.9123C12.2065 11.8902 12.0006 11.8265 11.8129 11.7248C11.6251 11.6231 11.4592 11.4854 11.3247 11.3196C11.1901 11.1538 11.0896 10.9631 11.0287 10.7585C10.9679 10.5538 10.9479 10.3391 10.97 10.1268C10.9922 9.91438 11.0559 9.70844 11.1576 9.52069C11.7295 8.4679 12.4833 7.6729 13.4408 7.16167V7.16384Z" fill="#ffffff"/>
<path d="M16.3783 25.9945C16.9528 25.9945 17.5038 25.7663 17.91 25.3601C18.3162 24.9538 18.5445 24.4028 18.5445 23.8283C18.5445 23.2538 18.3162 22.7028 17.91 22.2966C17.5038 21.8903 16.9528 21.6621 16.3783 21.6621C15.8037 21.6621 15.2528 21.8903 14.8465 22.2966C14.4403 22.7028 14.212 23.2538 14.212 23.8283C14.212 24.4028 14.4403 24.9538 14.8465 25.3601C15.2528 25.7663 15.8037 25.9945 16.3783 25.9945Z" fill="#ffffff"/>
<path d="M16.3782 2.29645e-07C13.6455 -0.000459178 10.9569 0.688375 8.56105 2.00276C6.16524 3.31714 4.13966 5.21461 2.67177 7.51957C1.20388 9.82453 0.341096 12.4625 0.163267 15.1894C-0.0145615 17.9163 0.498307 20.644 1.65441 23.1201L0.0839049 29.2764C-0.0313687 29.7287 -0.0278091 30.203 0.0942386 30.6534C0.216286 31.1039 0.452679 31.5151 0.780484 31.8473C1.10829 32.1795 1.51638 32.4213 1.96516 32.5492C2.41395 32.6772 2.8882 32.6871 3.3419 32.5778C4.96656 32.1878 7.46421 31.5878 9.68892 31.0571C11.8978 32.0531 14.3014 32.5425 16.7239 32.4894C19.1464 32.4362 21.5263 31.8419 23.6893 30.7499C25.8523 29.658 27.7437 28.096 29.225 26.1784C30.7062 24.2608 31.7398 22.0362 32.25 19.6675C32.7602 17.2988 32.7341 14.8459 32.1736 12.4886C31.6131 10.1313 30.5324 7.92915 29.0107 6.04353C27.489 4.15791 25.5648 2.63654 23.379 1.59084C21.1933 0.545137 18.8012 0.00158835 16.3782 2.29645e-07ZM3.38089 16.2466C3.38175 13.4204 4.30382 10.6714 6.00739 8.41627C7.71096 6.16113 10.1032 4.52274 12.8216 3.74935C15.54 2.97597 18.4364 3.10973 21.0719 4.13038C23.7075 5.15103 25.9385 7.00294 27.427 9.40549C28.9154 11.808 29.5802 14.6303 29.3206 17.4446C29.0609 20.2589 27.891 22.9119 25.9881 25.0016C24.0852 27.0913 21.553 28.5037 18.7752 29.025C15.9974 29.5462 13.1254 29.1478 10.5944 27.8901L10.068 27.628L9.49396 27.7644L3.45454 29.2093C3.88779 27.5196 4.45533 25.2841 4.94923 23.3432L5.10087 22.7453L4.81926 22.1972C3.87054 20.3574 3.37727 18.3167 3.38089 16.2466Z" fill="#ffffff"/>
<path d="M27.2093 38.9921C22.9419 38.9921 19.0622 37.348 16.1616 34.6597H16.3782C17.9336 34.6597 19.4434 34.4669 20.8861 34.103C22.7578 35.1471 24.9153 35.7428 27.2115 35.7428C29.2911 35.7428 31.2537 35.2554 32.9931 34.3889L33.5195 34.1268L34.0936 34.2633C36.0887 34.7398 38.3502 35.2272 40.029 35.5847C39.6478 33.9578 39.13 31.7808 38.6383 29.842L38.4867 29.2441L38.7683 28.6961C39.717 26.8562 40.2103 24.8155 40.2067 22.7455C40.2078 20.5725 39.6636 18.4339 38.624 16.5257C37.5843 14.6175 36.0825 13.0007 34.2561 11.8234C33.8741 10.2761 33.2915 8.78542 32.5231 7.38916C34.6735 8.1338 36.6437 9.32175 38.3059 10.8761C39.9682 12.4305 41.2854 14.3166 42.1725 16.4123C43.0596 18.5081 43.4966 20.7667 43.4554 23.0421C43.4142 25.3175 42.8955 27.5588 41.9331 29.6211C42.4812 31.8046 43.0379 34.1701 43.3888 35.693C43.4918 36.1344 43.4819 36.5946 43.3598 37.0312C43.2377 37.4677 43.0075 37.8664 42.6905 38.1903C42.3735 38.5142 41.9798 38.753 41.5461 38.8844C41.1123 39.0159 40.6523 39.0358 40.2088 38.9423C38.634 38.613 36.158 38.0845 33.8986 37.5559C31.7966 38.5056 29.5159 38.9952 27.2093 38.9921Z" fill="#ffffff"/>
</svg>
