<svg width="80" height="65" viewBox="0 0 80 65" fill="none" xmlns="http://www.w3.org/2000/svg">
<path fill-rule="evenodd" clip-rule="evenodd" d="M54.3726 1.66552C50.6756 4.31901 49.521 5.20039 49.299 5.5389C49.0016 5.99235 49.1543 6.59064 49.7954 7.48516C50.243 8.10949 50.3036 8.26202 50.1511 8.38163C47.8842 10.1597 36.4791 18.3944 36.2833 18.3944C35.9699 18.3944 26.3192 12.8476 26.3192 12.6675C26.3192 12.5675 26.4658 12.1967 26.645 11.8436C27.2624 10.6265 27.0448 10.2398 25.1427 9.17333C23.0876 8.02125 19.1607 6.14124 18.6178 6.04961C17.6388 5.88432 18.2542 4.98785 12.1556 15.4653C4.10567 29.295 0 36.5191 0 36.8537C0 37.3611 0.33329 37.7369 1.28352 38.3011C2.55088 39.0533 7.71609 41.607 8.36065 41.7999C8.98775 41.9875 9.36521 41.759 9.92274 40.8539L10.3238 40.2029L10.9934 41.5436C11.6481 42.8541 12.2142 43.7716 13.0348 44.852L13.442 45.388L13.1089 46.0444C12.507 47.231 12.4444 48.8434 12.9617 49.8425C13.7071 51.2824 16.2757 53.0063 18.1108 53.2983C18.8242 53.4118 19.1531 53.5727 19.1531 53.8083C19.1531 53.9057 19.4172 54.5126 19.7399 55.1567C20.1846 56.0438 20.517 56.5037 21.1109 57.0529C22.3385 58.188 24.9412 59.3482 26.2608 59.3482C26.6208 59.3482 26.6864 59.4068 26.8182 59.8463C27.1932 61.0964 28.8513 62.966 30.4025 63.8874C31.702 64.6596 32.763 64.9867 34.0065 64.9989C34.9582 65.0081 35.1958 64.9639 35.695 64.6843C36.4082 64.2848 37.2178 63.2968 38.3552 61.4379L39.2223 60.0207L42.0003 61.3666C45.4152 63.021 45.8856 63.1681 47.5423 63.0994C48.5411 63.058 48.9256 62.9825 49.4405 62.727C50.3609 62.2704 51.5287 61.085 51.9562 60.1733C52.2907 59.4601 52.3127 59.3025 52.3127 57.6159V55.8185L53.0945 55.4051C54.025 54.9128 55.2211 53.7714 55.6515 52.965C55.9382 52.4276 55.9609 52.24 55.9609 50.4022V48.4194L56.6608 48.1357C58.8658 47.2418 60.3033 44.4681 59.7767 42.1232C59.5537 41.1304 59.4489 41.2889 60.7668 40.6258C61.5693 40.2221 62.641 39.1565 63.0507 38.3551C63.4257 37.6217 63.4205 37.626 64.4951 37.1801C66.3364 36.4161 68.1236 34.6465 69.1838 32.5374C69.3458 32.2153 69.5002 31.9275 69.5269 31.898C69.5536 31.8684 70.0301 32.3228 70.5858 32.9074C72.0804 34.4803 71.7083 34.5991 76.6946 30.9563C79.188 29.1346 80 28.3889 80 27.9209C80 27.5553 78.4253 25.5603 69.7746 14.9672C68.6347 13.5713 67.0573 11.6386 66.2693 10.6723C62.7687 6.37928 58.8165 1.64795 58.0723 0.859378C57.5547 0.310797 57.1586 0 56.9772 0C56.821 0 55.649 0.749531 54.3726 1.66552ZM57.4925 3.93702C57.8813 4.38448 59.0758 5.83395 60.1471 7.15823C61.2185 8.4825 63.3842 11.1473 64.9599 13.08C76.0797 26.7193 76.7715 27.5955 76.591 27.8127C76.3206 28.1381 72.5573 30.8454 72.3752 30.8454C72.1896 30.8454 71.3501 29.8609 66.8268 24.338C59.4947 15.3855 52.3778 6.56448 52.3778 6.429C52.3778 6.32982 52.647 6.11404 54.8363 4.45762C55.8061 3.72384 56.6414 3.12359 56.6926 3.12359C56.7438 3.12359 57.1038 3.4897 57.4925 3.93702ZM23.4864 11.2182L23.8457 11.4723L23.3644 12.3413C22.4715 13.9535 16.7945 23.8464 13.9035 28.8281C9.69733 36.076 8.07622 38.7846 7.94463 38.7846C7.72065 38.7846 3.45603 36.6392 3.14997 36.3726C3.12678 36.3525 3.20782 36.1402 3.33003 35.9008C3.70697 35.1628 14.6107 16.2894 18.2545 10.068L18.9514 8.87802L21.0392 9.92117C22.1875 10.4949 23.2887 11.0785 23.4864 11.2182ZM54.295 13.0475C60.2688 20.2208 67.3755 29.0896 67.5835 29.6309C67.6951 29.9215 66.3541 32.4704 65.7174 33.1779C65.1338 33.8263 63.9799 34.7499 63.7536 34.7499C63.6876 34.7499 63.4315 34.3284 63.1848 33.8131C62.5355 32.4575 61.7057 31.6809 60.0476 30.8776C56.9963 29.3991 44.212 24.0777 43.7117 24.0777C43.3964 24.0777 42.2594 24.7897 37.5244 27.953L33.5505 30.6078L32.5212 30.5423C31.6593 30.4875 31.4051 30.4161 30.9577 30.1023C30.2203 29.5852 29.8393 28.8513 29.8143 27.8998C29.7742 26.3742 29.8246 26.3287 38.7622 19.8443C46.252 14.4102 51.8565 10.412 51.9841 10.412C52.0479 10.412 53.0878 11.5979 54.295 13.0475ZM27.2231 16.289C29.0055 17.2732 30.965 18.3968 33.5171 19.8978C33.7137 20.0135 33.8732 20.1374 33.8715 20.1732C33.8698 20.209 32.8684 20.9703 31.6461 21.8651C29.1291 23.7078 28.1583 24.6476 27.65 25.733C27.3388 26.398 27.2986 26.6367 27.3046 27.7869C27.3134 29.4528 27.6163 30.2828 28.605 31.3495C29.6928 32.5232 31.1992 33.1881 32.7706 33.1881C34.0216 33.1881 34.7605 32.7926 40.2055 29.2083C42.1175 27.9496 43.7564 26.8914 43.8473 26.8565C44.0885 26.764 55.699 31.6355 58.9238 33.1821C60.1712 33.7804 60.3605 33.9168 60.6671 34.4394C61.1195 35.2104 61.2056 36.0175 60.9165 36.7739C60.3015 38.3824 58.8285 39.0358 57.2332 38.4078C56.8886 38.272 54.8783 37.3111 52.7659 36.2724C47.2364 33.5535 47.2034 33.5403 46.6378 33.8428C46.3377 34.0031 45.9935 34.6288 45.9935 35.0137C45.9935 35.6486 46.4405 35.9201 52.8339 39.1701C54.6971 40.1172 56.3227 40.9821 56.4466 41.0922C56.8671 41.4663 57.329 42.5801 57.329 43.2203C57.329 44.9089 55.6369 46.3624 54.1317 45.9666C53.8423 45.8906 51.3884 44.7413 48.6787 43.4127C45.8377 42.0197 43.597 40.9971 43.3859 40.9971C42.6423 40.9971 42.039 42.2633 42.5081 42.8392C42.8152 43.2162 43.5136 43.6136 47.1636 45.4883C52.7952 48.3808 53.2361 48.6834 53.5593 49.8781C54.0507 51.6942 52.2982 53.644 50.4809 53.3034C50.2259 53.2556 48.8593 52.6342 47.444 51.9224C46.0288 51.2106 44.7104 50.6282 44.5141 50.6282C44.0893 50.6282 43.5655 51.1092 43.438 51.6167C43.2809 52.2419 43.6158 52.5861 45.4087 53.6423C48.9519 55.7294 49.1231 55.8438 49.4529 56.3414C50.0968 57.3134 49.9951 58.807 49.2251 59.6829C48.3798 60.6446 47.4219 60.8579 46.0564 60.3886C45.2951 60.127 41.4934 58.3298 40.9466 57.9729L40.6552 57.7829L41.0769 56.9792C41.468 56.2333 41.498 56.086 41.4938 54.9311C41.4883 53.4416 41.2771 52.9434 40.151 51.7641C38.8165 50.3666 37.0818 49.395 35.0073 48.8831L33.8582 48.5997L33.5681 47.8863C32.9392 46.3408 31.8598 45.2029 30.3023 44.4436C28.8873 43.7537 28.0619 43.588 26.1238 43.6049C25.1922 43.613 24.3588 43.6153 24.2719 43.6099C24.1849 43.6045 23.7379 43.2488 23.2784 42.8195C21.5979 41.2492 20.2197 40.6721 18.3713 40.7648C16.9997 40.8335 16.3601 41.1306 15.4066 42.1418C14.6162 42.9802 14.7321 43.0328 13.7997 41.4131C13.0783 40.1599 12.6822 39.0393 12.4938 37.7181L12.3398 36.6371L18.0404 26.7457C24.3988 15.7128 24.7635 15.0973 24.9405 15.0973C25.009 15.0973 26.0362 15.6336 27.2231 16.289ZM19.6307 43.4041C20.9149 43.7849 22.1498 45.0894 22.1498 46.065C22.1498 46.5411 21.1457 48.6204 20.2362 50.0273L19.6571 50.9231L18.9188 50.847C17.9239 50.7444 16.2176 49.8954 15.5722 49.1818C15.1319 48.6949 15.0912 48.5899 15.1562 48.106C15.239 47.4901 16.1831 45.5997 17.0572 44.2999C17.8108 43.1792 18.2995 43.0091 19.6307 43.4041ZM27.4267 46.1385C28.8168 46.4301 30.1384 47.1324 30.6241 47.8376C31.2281 48.7146 31.3223 49.0807 31.0877 49.6416C30.84 50.2336 29.0625 53.2148 27.8104 55.1381C27.2443 56.0078 26.7515 56.6257 26.5811 56.6797C25.6801 56.9654 22.9235 55.6254 22.2163 54.558C22.027 54.2722 21.8489 53.7747 21.8057 53.4112C21.7236 52.7189 21.7068 52.7574 23.6926 49.0855C24.0547 48.416 24.4848 47.546 24.6482 47.1519C25.1583 45.9228 25.6107 45.7577 27.4267 46.1385ZM34.8814 51.485C36.9513 52.169 38.8409 53.5837 39.0301 54.5911C39.1483 55.2197 38.9915 55.5478 37.1042 58.6239C35.3295 61.5166 34.7226 62.4192 34.493 62.5072C34.1472 62.6397 32.8874 62.3137 32.0493 61.8747C30.7187 61.1777 29.9121 60.3945 29.3738 59.2766L28.9104 58.3142L30.311 56.0004C33.3608 50.9629 33.3459 50.9775 34.8814 51.485Z" fill="white"/>
</svg>
