<svg width="27" height="21" viewBox="0 0 27 21" fill="none" xmlns="http://www.w3.org/2000/svg">
<path fill-rule="evenodd" clip-rule="evenodd" d="M26.375 2.8223C25.4062 3.23318 24.3784 3.50268 23.3261 3.62183C24.4345 2.98697 25.2641 1.98824 25.6602 0.811624C24.6181 1.4037 23.4779 1.82099 22.2889 2.04547C21.4896 1.22869 20.4308 0.68725 19.277 0.5052C18.1232 0.323149 16.9388 0.510672 15.9078 1.03866C14.8767 1.56665 14.0567 2.40556 13.5749 3.42518C13.0932 4.4448 12.9766 5.58809 13.2434 6.67757C11.1325 6.57662 9.06732 6.05177 7.1822 5.13714C5.29708 4.2225 3.63417 2.93855 2.30155 1.36871C1.82923 2.14403 1.58104 3.02565 1.58244 3.92307C1.58244 5.68512 2.51933 7.24085 3.94461 8.15179C3.10163 8.12568 2.27721 7.90822 1.53931 7.51733V7.57923C1.53915 8.75236 1.96315 9.88941 2.73937 10.7975C3.51559 11.7055 4.59623 12.3286 5.79791 12.561C5.01589 12.7636 4.19604 12.7935 3.40016 12.6487C3.73934 13.6581 4.3997 14.5408 5.2889 15.1734C6.17811 15.806 7.25169 16.1569 8.35953 16.177C6.47882 17.5884 4.15692 18.3539 1.7668 18.3506C1.3377 18.3506 0.915078 18.3269 0.5 18.2805C2.92754 19.7726 5.75249 20.5648 8.63769 20.5625C18.4023 20.5625 23.7411 12.8221 23.7411 6.10913C23.7411 5.88939 23.7357 5.67068 23.726 5.453C24.7654 4.73367 25.6624 3.84284 26.375 2.8223Z" fill="#3763FF"/>
</svg>
